{
  "accessors": [
    {
      "bufferView": 2,
      "componentType": 5126,
      "count": 6625,
      "max": [
        24.533857345581055,
        53.13532257080078,
        19.77674102783203
      ],
      "min": [
        -30.931133270263672,
        -3.814697265625e-06,
        -16.379352569580078
      ],
      "type": "VEC3"
    },
    {
      "bufferView": 2,
      "byteOffset": 79500,
      "componentType": 5126,
      "count": 6625,
      "max": [
        0.9999907612800598,
        1.0,
        1.0
      ],
      "min": [
        -0.9999907612800598,
        -1.0,
        -1.0
      ],
      "type": "VEC3"
    },
    {
      "bufferView": 3,
      "componentType": 5126,
      "count": 6625,
      "max": [
        0.9999907612800598,
        1.0,
        0.9999998807907104,
        1.0
      ],
      "min": [
        -0.9999907612800598,
        -0.999922513961792,
        -0.9999993443489075,
        -1.0
      ],
      "type": "VEC4"
    },
    {
      "bufferView": 1,
      "componentType": 5126,
      "count": 6625,
      "max": [
        0.9993378520011902,
        0.9993918538093567
      ],
      "min": [
        0.00108414888381958,
        0.0010981112718582153
      ],
      "type": "VEC2"
    },
    {
      "bufferView": 0,
      "componentType": 5125,
      "count": 27048,
      "type": "SCALAR"
    }
  ],
  "asset": {
    "extras": {
      "author": "Alec Huxley (https://sketchfab.com/alechuxley)",
      "license": "CC-BY-4.0 (http://creativecommons.org/licenses/by/4.0/)",
      "source": "https://sketchfab.com/3d-models/telescope-9d1c5efb30f84a1282981efef66c6410",
      "title": "Telescope"
    },
    "generator": "Sketchfab-15.0.0",
    "version": "2.0"
  },
  "bufferViews": [
    {
      "buffer": 0,
      "byteLength": 108192,
      "name": "floatBufferViews",
      "target": 34963
    },
    {
      "buffer": 0,
      "byteLength": 53000,
      "byteOffset": 108192,
      "byteStride": 8,
      "name": "floatBufferViews",
      "target": 34962
    },
    {
      "buffer": 0,
      "byteLength": 159000,
      "byteOffset": 161192,
      "byteStride": 12,
      "name": "floatBufferViews",
      "target": 34962
    },
    {
      "buffer": 0,
      "byteLength": 106000,
      "byteOffset": 320192,
      "byteStride": 16,
      "name": "floatBufferViews",
      "target": 34962
    }
  ],
  "buffers": [
    {
      "byteLength": 426192,
      "uri": "scene.bin"
    }
  ],
  "images": [
    {
      "uri": "textures/telescopeMaterial_baseColor.png"
    },
    {
      "uri": "textures/telescopeMaterial_metallicRoughness.png"
    },
    {
      "uri": "textures/telescopeMaterial_normal.png"
    }
  ],
  "materials": [
    {
      "doubleSided": true,
      "name": "telescopeMaterial",
      "normalTexture": {
        "index": 2
      },
      "pbrMetallicRoughness": {
        "baseColorTexture": {
          "index": 0
        },
        "metallicRoughnessTexture": {
          "index": 1
        }
      }
    }
  ],
  "meshes": [
    {
      "name": "TelescopeExport_telescopeMaterial_0",
      "primitives": [
        {
          "attributes": {
            "NORMAL": 1,
            "POSITION": 0,
            "TANGENT": 2,
            "TEXCOORD_0": 3
          },
          "indices": 4,
          "material": 0,
          "mode": 4
        }
      ]
    }
  ],
  "nodes": [
    {
      "children": [
        1
      ],
      "matrix": [
        1.0,
        0.0,
        0.0,
        0.0,
        0.0,
        2.220446049250313e-16,
        -1.0,
        0.0,
        0.0,
        1.0,
        2.220446049250313e-16,
        0.0,
        0.0,
        0.0,
        0.0,
        1.0
      ],
      "name": "Sketchfab_model"
    },
    {
      "children": [
        2
      ],
      "matrix": [
        0.009999999776482582,
        0.0,
        0.0,
        0.0,
        0.0,
        0.0,
        0.009999999776482582,
        0.0,
        0.0,
        -0.009999999776482582,
        0.0,
        0.0,
        0.0,
        0.0,
        0.0,
        1.0
      ],
      "name": "1fe65e946d5f485795fa697b3ae3c8fe.fbx"
    },
    {
      "children": [
        3
      ],
      "name": "RootNode"
    },
    {
      "children": [
        4
      ],
      "name": "TelescopeExport"
    },
    {
      "mesh": 0,
      "name": "TelescopeExport_telescopeMaterial_0"
    }
  ],
  "samplers": [
    {
      "magFilter": 9729,
      "minFilter": 9987,
      "wrapS": 10497,
      "wrapT": 10497
    }
  ],
  "scene": 0,
  "scenes": [
    {
      "name": "Sketchfab_Scene",
      "nodes": [
        0
      ]
    }
  ],
  "textures": [
    {
      "sampler": 0,
      "source": 0
    },
    {
      "sampler": 0,
      "source": 1
    },
    {
      "sampler": 0,
      "source": 2
    }
  ]
}
